<?xml version="1.0" encoding="UTF-8"?> <!-- Generator: Adobe Illustrator 23.1.0, SVG Export Plug-In . SVG Version: 6.00 Build 0) --> <svg xmlns="http://www.w3.org/2000/svg" xmlns:xlink="http://www.w3.org/1999/xlink" id="Слой_1" x="0px" y="0px" viewBox="0 0 300 300" style="enable-background:new 0 0 300 300;" xml:space="preserve"> <style type="text/css"> .st0{fill-rule:evenodd;clip-rule:evenodd;fill:#232323;} .st1{fill:#86BE58;} .st2{fill:#D6301A;} .st3{fill:#33BCE4;} .st4{fill:#F4CC23;} </style> <title>6</title> <path class="st0" d="M193.6,162.8c0.9,0.4,2,0.8,3.1,1.2c0.5-1.4,0.8-2.9,0.9-4.5c-1.5,0-2.9-0.1-4.3-0.1 C193.4,160.6,193.5,161.7,193.6,162.8L193.6,162.8z M147.1,45.3c5.4,1.4,12.7,3,18.2,3.1c-9.7-13.4-25.5-16.5-39.9-12.5 C134.9,37.9,141.9,41.3,147.1,45.3L147.1,45.3z M171.4,47.3c2.2-1.3,4.1-3,5.4-5.2c-3.8-2.6-8-4.5-12.4-5.8 c-0.5,0.6-0.9,1.1-1.2,1.5C166.5,40.5,169.2,43.7,171.4,47.3z M179.4,37.8c1-2.1,1.9-4.2,2.6-6.4l0,0c-0.4,2.3-1.1,4.6-2,6.8 c2.5,1.8,4.9,3.9,6.9,6.2c2.5-2.6,6.9-7.8,7.1-14.1c0.3-8.5-6.2-9.1-6.2-9.1c-0.5-0.1-0.9-0.5-0.9-1.1c0.1-0.5,0.5-0.9,1.1-0.9 c0,0,8.2,0.8,7.9,11.1c-0.2,7-5.1,12.8-7.8,15.6c0.6,0.8,1.2,1.7,1.8,2.6l11-8.2c3.7-5.5,5.8-11.9,5.8-18.5 c-0.2-0.5,0.1-1.1,0.6-1.3c0.5-0.2,1.1,0.1,1.3,0.6c0.1,0.2,0.1,0.4,0,0.6c0,5.4-1.3,10.8-3.8,15.7l35.7-26.3l-48,43.5 c1.1,3.1,1.4,6.3,1.1,9.6l0.6,0.2c7.8-5,16-9.3,24.6-12.9l0,0c0,0-9,7.6-19.2,15.1c2.2,1,4.6,2.1,7.1,3.4c3.6-2.1,7.3-3.8,11.2-5.1 c1.7-2.2,3.8-4.2,6.1-5.8c0.3-0.2,0.8-0.1,1,0.2c0,0,0,0,0,0c0.2,0.4,0.1,0.8-0.2,1.1c0,0,0,0,0,0c-1.5,1.1-2.9,2.3-4.1,3.7 c1.2-0.3,2.5-0.6,3.8-0.7c2.1-0.3,4.3-0.1,6.3,0.7c1.2-1.5,2.3-3.2,3.1-5c3.9-8.5-2.6-4.8-2.6-4.8c-0.4,0.2-0.8,0.1-1-0.3 c-0.2-0.4-0.1-0.8,0.3-1c0,0,10.6-6.1,4.7,6.8c-0.8,1.8-1.9,3.5-3.1,5.1c1.9,1.3,3.2,3.4,3.5,5.7c0.2,0.5,0,1.1-0.5,1.3 c-0.5,0.2-1.1,0-1.3-0.5c-0.1-0.2-0.1-0.4-0.1-0.6c-0.3-1.8-1.3-3.4-2.9-4.4c-3.8,4.1-8.1,7.6-12.9,10.4c6.2,4.3,11.6,9.7,15.8,16 c6.4-5.4,12.1-6.8,13.8,2.6l0,0l0,0l0,0l0.1,0.6c0.4-0.7,0.9-1.4,1.4-2c0.9-1.4,2.1-2.7,3.4-3.7c0.2-0.5,0.3-0.8,0.3-0.8 c0.1-0.4,0.5-0.6,1-0.5c0,0,0,0,0,0c0.2,0.1,0.4,0.2,0.5,0.5c4.7-1.5,7.4,5.1,7.5,5.2c0.2,0.4,0,0.8-0.4,1c-0.4,0.2-0.8,0-1-0.4 c0,0-2.5-5.9-6.6-3.7c-1.4,3.7-3.1,7.3-5.2,10.7c0.4,5.6,0.3,13.7-2.4,21.3l0.4,0.2c-0.4,0.7-0.8,1.4-1.3,2.1 c-1.1,2.6-2.5,5-4.3,7.1c-8.2,10.1-17.9,12.6-22.7,13.1c0.5,3.1,0.5,6.3-0.1,9.4c5.5-0.1,11.2-0.2,16.8-0.4c9.3-0.3,18-0.9,24.4-1.8 c4.3-0.6,6.6-1.4,7.8-2.2c-1.3,0.1-7.7-0.1-3.4-2.8c1.7-1.1,3.8-1.4,5.6-0.7c1.7,0.6,2.6,2.6,2,4.3c-0.2,0.5-0.4,0.9-0.8,1.2 c-1.3,1.5-4.5,3.1-10.7,4c-6.6,0.9-15.4,1.5-24.8,1.8c-5.9,0.2-12,0.4-17.8,0.4c-1,3.4-2.5,6.5-4.5,9.4c10,2.5,20.3,3.8,30.6,3.9 c32,0,47.8-5.8,47.8-5.8c-13.4,6.3-28,10-42.8,10.8c-0.8,2.6-3.1,6.5-10.2,6.5c-7.6,0-18-5.2-23.3-8.2c4.7,6.8,5.3,16.1,5.3,16.1 c0.2,0.5-0.1,1.1-0.6,1.3s-1.1-0.1-1.3-0.6c-0.1-0.2-0.1-0.4,0-0.6c0,0-0.8-12.7-8-18.5l-1.6-0.3c-2.2,2.1-4.7,3.9-7.4,5.3 l22.6,27.5l-2,1.8l-23.1-26.4c-0.4,0.4-1,0.9-1.5,1.5c-2.2,4.4-5.1,8.6-8.4,12.3c4.9,1.1,9.2,3.9,12.2,7.8c7,8.7-1.9,16.4-1.9,16.4 l-0.7-0.7c0,0,7-7.1,1.1-14.5c-3-3.9-7.5-6.6-12.4-7.4c-2,2.1-4.2,4.2-6.5,6.1c2.1,3,3.8,6.2,5.2,9.6c1,2.7,1.5,5.5,1.5,8.4 c-0.3,10.1-9.4,13.5-18.4,13.2c-2.5-0.1-5.1-0.5-7.5-1.2c1.4,6.7,1.9,13.7,1.3,20.6c-2.3,27.8-25.7,25.9-25.8,26l0,0 c0.1,0,21.9-1.6,23.9-26.1c0.6-7.1,0-14.3-1.8-21.2c-4.1-1.5-7.9-3.3-11.6-5.6c-1.7,3.1-5.1,4.9-8.6,4.6c-1,0-1.9-0.2-2.9-0.5 c-2,0.6-4.3,0.2-7.1-1.7c-1.9-1.3-3.6-2.8-5-4.6c-3.8,5.6-7.7,11.4-11.7,17c-0.6,12.4-1.8,24.5-3.7,34.1 c-2.8,14.1-5.3,24.2-12.9,21.3l0,0c4.4,0.9,7.8-7.6,10.2-19.5c1.9-10.6,3.1-21.4,3.7-32.2c-5.8,8-11.8,15.7-17.6,22.6 c-4.3,5.1-9.6,10.6-14.5,12.2l0,0c10.4-10,21.7-24.1,32.4-39.1c0.3-5.7,0.5-11.4,0.7-17c-10.4,14-21.4,27.8-31.4,38 c-38.2,36-12-11.4-10.3-9.4l0,0c0,0.1-16.4,31.6,8.1,6.5c10.6-10.8,22.5-25.5,33.7-40.1v-1.1c-2.6-0.6-5.3-1.3-7.8-2.1 c-1.1,1.3-2.1,2.5-3.2,3.6c-1.8,8.3-5.6,16-10.9,22.6c-0.3,0.4-0.9,0.4-1.3,0.1c0,0,0,0,0,0c-0.4-0.4-0.4-1-0.1-1.4 c4.4-5.4,7.6-11.6,9.6-18.3c-1,1.1-2,2.2-2.9,3.2c-10.1,14.2-14.1,9.3-15.5,7.9c-0.3-0.4-0.3-1,0.1-1.4c0.4-0.3,1-0.3,1.3,0.1 c0,0,2.4,3.1,12.7-7.9c1.6-1.7,3.3-3.6,5.3-5.8c0.3-1.4,0.5-2.9,0.6-4.3l-0.9-0.4c-3.5,2.3-8.3,3.9-15,3.3c-0.9-0.1-1.8-0.2-2.6-0.3 c-1.8,2.7-4.4,4.7-7.4,5.8c-3.4,1.3-7.2,1.6-10.8,0.8c-3.9-0.8-7.4-2.8-10.2-5.6c-3.8-4-6.2-9.2-6.7-14.7l0,0 c-1.7-13.1,4.7-20.2,10.7-24.1c-0.7-1.8-1.4-3.6-1.9-5.4c-1.1-0.9-2.2-1.8-3.2-2.7l-0.6,0.1c0,0-0.1-0.3-0.2-0.8 c-0.9-0.8-1.9-1.7-2.8-2.6l0,0l-0.1-0.1c-5.2-5.1-9.6-10.8-10.8-16.4c-1.9-8.4,2.6-15.5,7.6-20.5l0.1-0.1l0,0 c1.4-1.4,2.8-2.6,4.4-3.8c0.6-3.8,1.7-7.5,3.2-11c-0.6-4.5-0.8-9.1-0.7-13.6c0.1-2.2,0.3-4.4,0.6-6.6c-1.9,0.5-3.8,1.1-5.6,1.9 c-2.1,0.9-4,2.1-5.7,3.5c-2.5,2-4.2,4.8-4.9,7.9c-0.1,0.4-0.1,0.9-0.2,1.3c0.9,0.2,1.8,0.4,2.7,0.6c4.4,1.3,8.6,4,9.4,7.3 c0.5,1.6,0.4,3.3-0.3,4.7c-0.5,0.9-1.3,1.6-2.2,2c-1,0.4-2,0.5-3,0.3l0,0c-2.2-0.5-4.1-1.7-5.6-3.4c-2.6,0-10.7-0.4-10.4-7.2 c0-1.6,0.9-3,2.3-3.7l0,0c1.2-0.6,2.6-0.9,4-0.9c0-0.6,0.1-1.1,0.2-1.7c0.8-3.8,2.9-7.3,5.9-9.7c1.9-1.6,4.1-3,6.4-4 c2.4-1.1,4.8-1.9,7.4-2.4c1.4-7.9,4.9-15.3,10-21.5c-5.2-4.9-11-9.3-17.2-12.9l0,0c10.3,1.1,17,5.1,21.1,8.9 c3.3-3.1,7.3-5.3,11.7-6.7c1.2-0.8,2.6-1.6,3.9-2.2c-3-4.5-10-12.3-25.2-20.4l0,0c19,4.5,27.3,13,30.7,18.3c0.1-0.1,0.2-0.2,0.5-0.4 l0,0l0,0l0,0l0.1-0.1l0,0l0.3-0.2c0.9-1,1.9-2.2,3-3.4c-3.4-5-10-12.6-22.3-21.1l0,0c14.3,4,22.2,11.2,26.5,17 C108,35,125.7,28.2,144,28.4c7.3,0,14.6,1,21.6,3c4.7-6.3,11-16.3,8.4-21.8c-1.4-3.2-4.6-5.3-8.1-5.2c-3.7,0.2-7.2,1.2-10.5,2.9 c-3.3,1.6-6.4,3.8-9.1,6.4l0,0c-2.8,2.8-3.5,5.2-2.9,7c0.2,0.8,0.7,1.5,1.4,2.1c0.7,0.6,1.5,0.9,2.4,1.1c8.7,1.5,4.5-9.5,2.3-5.2 c-0.3,0.6-1,1-1.7,0.8c-7.2-2.1,13.2-7.7,6.2,3.2c-1.5,2.4-4.3,3.6-7.1,3.1c-1.2-0.2-2.3-0.7-3.3-1.5c-1-0.8-1.7-1.8-2.1-3 c-0.7-2.4,0-5.5,3.4-8.9l0,0c2.8-2.7,6-5,9.6-6.7c3.5-1.8,7.3-2.8,11.2-3c3.6-0.1,6.9,0.8,9,3l0,0c0.7,0.7,1.2,1.5,1.6,2.3 c2.9,6-3.7,17-8.9,24.1C171.8,33.4,175.7,35.3,179.4,37.8L179.4,37.8z M177.6,42.6L177.6,42.6c-1.6,2.3-3.3,4.7-5.4,6 c0.4,0.7,0.7,1.3,1,2c2.2,1,4.3,2.1,6.3,3.4c0.9,0.6,1.8,1.1,2.6,1.7l4-3.7C184.1,48.3,181.2,45.1,177.6,42.6L177.6,42.6z M158.4,49.2c-2.9-0.4-5.9-1.1-8.6-1.7c1.1,1,2.1,2,3,3.1C153.3,50.6,156.5,49.4,158.4,49.2L158.4,49.2z M169.3,198.3h0.6l-0.2-0.2 L169.3,198.3z M171.8,198.2c0.4,0,0.8-0.1,1.1-0.1c-0.3-0.5-0.6-0.9-0.9-1.4l-1,0.6C171.3,197.6,171.5,197.9,171.8,198.2 L171.8,198.2z M174.6,197.9l0.3-0.1c-0.7-0.9-1.2-1.6-1.6-2.1l0,0C173.8,196.5,174.3,197.2,174.6,197.9L174.6,197.9z M176.6,197.4 c1.9-0.5,3.7-1.4,5.3-2.5c1.1-0.8,2-1.5,2.8-2.2c1-1.3,1.9-2.6,2.7-3.8c-0.8,0.3-1.6,0.5-2.4,0.8l-0.8,0.2l-0.4,0.3 c-2.6,2.3-5.7,4-9.1,4.8C175.2,195.6,175.8,196.4,176.6,197.4z M174.9,201.7l-0.5,0.1l0.5,0.8l0.3-0.2L174.9,201.7L174.9,201.7z M172.7,201.9c-4.3,0.3-8.6-0.1-12.7-1.1c-3.3,0.3-6.7,0.1-10-0.6c-3,0.7-6.4,1.5-9.7,2.2c4.6,4.5,15.2,13,30.7,2.9 c1-0.6,1.9-1.3,2.8-1.9C173.4,203,173,202.4,172.7,201.9L172.7,201.9z M49.2,161.1c0.1-0.3,0.2-0.6,0.3-0.9c0.4-1,1-2,1.8-2.7 c-1.1-3.4-2-7-2.8-10.8c-0.6-3-1.1-6-1.3-9c-1.1,5.8-1.9,14.1,0.8,21C48.4,159.4,48.8,160.2,49.2,161.1L49.2,161.1z M52.9,161.9 c-0.3,1.3-0.5,2.7-0.3,4.1c1.1,1.3,2.2,2.4,3.4,3.5c-0.6-1.2-1.1-2.5-1.6-3.7l-0.3,0.1c0,0-0.1-0.6-0.3-1.6 C53.4,163.5,53.2,162.7,52.9,161.9L52.9,161.9z M101.2,70.6c0.3,0.4,0.7,0.7,1.1,0.8c1.4,0.4,3,0.1,4.2-0.7c0,0,0,2.8-2.3,3.1 c-1,0.1-2,0-3-0.3c0.1,0.7,0.2,1.4,0.4,2.1c2-0.2,3.8-0.2,5.3-0.2c0.3-2,0.6-4.1,0.9-6.2c-1.7-0.9-3.6-1.8-5.6-2.6 C101.7,68,101.4,69.3,101.2,70.6L101.2,70.6z M88,74.1c-0.7-3.6-1.1-7.2-1.2-10.8h-0.2c-5,6-5.5,13.7-5.3,18.3l1.5-0.8 c2.6-1.4,5.4-2.5,8.2-3.2c-1.4-3-2.3-7.3-1.1-13.4c-0.5,0.7-0.9,1.5-1.3,2.3C87.5,69.5,88,74.1,88,74.1z M102.1,59.5 c1.1-1.3,2.4-2.9,4-4.4c-4.1-0.1-6.3,0.8-9.7,2c0.7,0.2,1.4,0.5,2,0.7C99.7,58.3,100.9,58.9,102.1,59.5L102.1,59.5z M108.8,57.7 c-1.3,1.3-2.5,2.6-3.4,3.8c1,0.7,2,1.4,3,2.2c0.2-1.9,0.3-3.7,0.4-5.3L108.8,57.7L108.8,57.7z M168.1,53.1c-1.3-0.2-2.6-0.3-3.9-0.3 c1.5,0.5,3.1,1.1,4.5,1.8C168.6,54.1,168.4,53.6,168.1,53.1z M166.4,68.2c0.3-2.3,0.4-4.6,0.2-6.9c-2.6-0.3-5.1-0.5-7.7-0.6 c1.2,3.2,2.1,6.5,2.5,9.8C162.9,69.9,164.6,69.1,166.4,68.2z M180,190.6c-0.4,0.1-0.8,0.1-1.2,0.1l-1.1,1.1 C178.5,191.5,179.3,191.1,180,190.6z M189.8,179.1c1.2-0.8,2.3-1.7,3.3-2.7c0.6-2,1-4,1.2-6l-0.6-0.1c-1,2.1-2.2,4.2-3.5,6.2 C190.1,177.3,190,178.2,189.8,179.1L189.8,179.1z M144.5,216.2c-0.3,1.7-0.8,3.3-1.3,4.9c0.9,0.6,1.8,1.3,2.8,1.9 c0.7-2.2,1-4.5,1-6.8C146.1,216.2,145.3,216.2,144.5,216.2L144.5,216.2z M142.3,223.5c-0.7,1.9-1.8,3.6-3.1,5.1 c2.4,0,4.6-1.3,5.7-3.3C144,224.7,143.1,224.1,142.3,223.5z M122.3,222.5c-0.7-1-1.3-2.1-1.9-3.1c-1.7-0.2-3.8-0.4-6.2-0.9l-1.5,2.1 c-0.1,5.4-0.2,11-0.5,16.6C115.6,232.3,119,227.4,122.3,222.5L122.3,222.5z M118.9,216.1c-0.2-0.6-0.4-1.1-0.6-1.6 c-0.4,0.1-0.9,0.1-1.3,0.2l-0.8,1.1C117.2,215.9,118,216,118.9,216.1z M99.1,207.6c-0.8,0.8-1.7,1.6-2.6,2.3l0.3,0.1 C97.7,209.3,98.4,208.5,99.1,207.6L99.1,207.6z M89.9,205.4c1.8-0.3,3.4-1.2,4.5-2.6c0.7-0.7,1.3-1.5,1.8-2.4c-3.5-1.7-6.9-3.7-10-6 c-1.3,1.5-2.6,3.1-4,4.7C85,201.5,87.6,203.6,89.9,205.4L89.9,205.4z M77.4,205.3l-0.7,0.9c-1.4,1.8-2.9,3.5-4.5,5.2 c3.2,1.4,6.7,2.3,10.2,2.6c3.9,0.5,7.9-0.2,11.5-1.9l-0.9-0.6v0.1C86.2,209.8,83.3,208.7,77.4,205.3L77.4,205.3z M42.5,150.1 c-0.2-5.1,0.3-10.2,1.5-15.2c-1.6,3.3-2.2,8.1-1.7,13.2C42.4,148.7,42.5,149.4,42.5,150.1L42.5,150.1z M133,46.4 c-6.7-0.6-12.5,2.5-16.1,5.1c0.5,0.2,1.1,0.5,1.6,0.7c2.6,1.2,4.9,2.8,7.1,4.7c4.6-2.9,9.7-4.9,15-5.8 C138.2,49.3,135.7,47.7,133,46.4L133,46.4z M114.2,48.7c3-2.3,6.4-4.1,10-5.2c-3.6-0.7-7.2-1.1-10.8-1 C113.7,44.2,114,46.3,114.2,48.7L114.2,48.7z M226.6,92.7c-1.7,0-3.3,0.5-4.7,1.5c1.4,2.4,2.5,5,3.2,7.6c1.4-1.7,2.9-3.4,4.4-5 C228.6,95.4,227.6,94,226.6,92.7L226.6,92.7z M217.9,99c-2.2,4.4-3.3,10.7-3.8,14.3c0,0.7,0,1.4,0,2.1c0,0.5-0.1,1-0.1,1.5 c1.7-2.5,3.9-5.7,6.4-8.9C220.1,104.8,219.3,101.8,217.9,99z M212.4,102.8c0.7-2.7,1.8-5.2,3.3-7.6c-5.2-7.4-13.8-12.5-21.5-15.8 c0.3,0.8,0.6,1.7,0.9,2.6C201.1,85.8,209,92.5,212.4,102.8L212.4,102.8z M219.7,91c1.2-0.8,2.5-1.4,3.8-1.8 c-9.4-9.9-22.7-16-31-19.1c-0.2,0.8-0.3,1.5-0.5,2.3C201,75.7,212.6,81.5,219.7,91z M234.6,129.6c4-1,7.3-3.7,9.2-7.3l0.2,0.1 c1.7-5.5,2.5-11.2,2.3-16.9c-1.6,2.3-3.4,4.4-5.4,6.4l-0.7,1.5l0,0C240.3,120.5,238.1,125.7,234.6,129.6L234.6,129.6z M239.6,130.9 c-2.9,1.6-6.1,2.4-9.4,2.5c-4.4,2.7-9.3,4.5-14.4,5.4v0.3c0.2,0.3,0.3,0.7,0.5,1c5.4,1.3,11.1,0.6,16-2c2.5-1.9,4.8-4.1,6.8-6.5 C239.2,131.3,239.4,131,239.6,130.9L239.6,130.9z M205,151.2c2.5-0.9,5.1-3,6.6-7.3c-0.4-1.2-1-2.4-1.6-3.4l-1,0.7 C208.3,144.8,206.9,148.1,205,151.2L205,151.2z M212.3,130.7c-0.2-1.2-0.5-2.3-0.9-3.5c-0.6,1.5-1.3,2.9-2,4.3 c0.3,0.3,0.7,0.6,1.1,0.9C211.2,131.9,211.7,131.3,212.3,130.7L212.3,130.7z M213.3,123.6c0.5,1.4,1,2.8,1.4,4.2 c1.1-1.5,2-3,2.8-4.7C216,123.3,214.6,123.5,213.3,123.6z M212.6,148.9c-2.1,3.3-5.5,5.5-9.4,6c0,0.3,0.1,0.6,0.1,0.8 c2.8,0,5.7,0,8.8,0v-0.1C212.5,153.4,212.7,151.2,212.6,148.9L212.6,148.9z M225.2,142c-2.8,0.4-5.5,0.3-8.3-0.2 c0.3,0.7,0.5,1.4,0.7,2.1C220.2,143.6,222.8,143,225.2,142z M177,205.8c0.3,0.4,0.5,0.8,0.4,1.3c0.3,0.8,0,0.9-0.9,0.2 c-0.3-0.2-0.6-0.4-0.8-0.6c-0.9,0.7-1.9,1.3-2.9,2c-5.6,3.7-11.9,6-18.6,6.8c2.9,4.6,5.1,9.6,6.4,14.9c2.6,0.8,5.3,1.3,8,1.4 c8.2,0.2,16.7-0.6,17-10.7c0-2.7-0.4-5.3-1.4-7.8c-1.3-3.2-3-6.3-4.9-9.2C178.6,204.7,177.8,205.3,177,205.8L177,205.8z M151.2,215.9l-1.6,0.2c0,2.9-0.4,5.8-1.4,8.5c3.1,1.9,6.3,3.6,9.7,4.9C156.4,224.6,154.1,220,151.2,215.9L151.2,215.9z M113.4,214.9l-0.6-0.8v1.1l0.4,0.1L113.4,214.9L113.4,214.9z M122.8,206.4c2.1,1.3,4.2,2.3,5.9,2.1c1.6-0.2,3.1-1.1,4.1-2.3 l1.6-2.6c-3.4,0.7-6.4,1.2-8.2,1.4c-0.9,0.1-1.8,0.2-2.7,0.3L122.8,206.4L122.8,206.4z M92.6,187.3c1.7,1.8,3.5,3.5,5.5,4.9 c2.3-2,4-4.6,5-7.4l-3.7-4.6C97.3,182.2,95.1,184.6,92.6,187.3L92.6,187.3z M104.1,195c2.3,0.5,4.7-0.1,6.4-1.6c0-3.4,0-6.4-0.1-9.1 l-1.2,0.7C108.3,188.8,106.5,192.1,104.1,195z M112.7,191.4c1.3-1.2,2.4-2.6,3.3-4.1l-3.3-4.4l-0.2,0.1L112.7,191.4z M117.1,198 c1.4,0.3,4.6,0.9,7.8,1.4c1.5-2,2.9-4,4.3-5.9c-2.2-0.9-4.2-2-6.2-3.3c-1.1,1.6-2.3,3.1-3.4,4.6C118.7,195.9,117.9,196.9,117.1,198z M127.6,199.7c1.3,0.2,2.7,0.2,4,0.2c0.4,0,0.8-0.1,1.2-0.1c1-0.3,1.9-0.6,2.9-0.9c1-0.4,1.9-0.9,2.8-1.5l0.4-0.6 c-1.1-0.5-1.8-0.8-2.1-1c-1.8-0.4-3.6-0.8-5.4-1.5C130.2,196.1,128.9,197.9,127.6,199.7L127.6,199.7z M96.1,87.2l1.1,8.2l-1.6,1.5 c-1.2-0.4-2.5-0.7-3.8-1.1c-1.6-0.4-3.2-0.8-4.6-1.1c1.6-2.2,3.6-4.1,5.9-5.7C94.1,88.4,95.1,87.8,96.1,87.2z M133.6,69.4 c3-0.3,8-0.8,13.7-1.1c2.1-0.1,3.8-0.1,5.2-0.1c-0.9-2.5-2.1-4.9-3.4-7.2c-6,0.3-11.8,1.7-17.2,4.3C132.5,66.6,133,68,133.6,69.4 L133.6,69.4z M152.9,69.7c-1.5,0-3.3,0-5.7,0.1c-3.2,0.2-6.1,0.4-8.7,0.6c6.1,0.4,11,1.5,15,1.7C153.4,71.4,153.2,70.6,152.9,69.7z M51.3,133.9c0.5,1.3,0.1,2.8-1,3.6c0.2,2.9,0.6,5.7,1.2,8.5c0.7,3.4,1.6,6.7,2.5,9.7c0.7-3.9,2.5-7.4,5.3-10.3 c-1.7-3.8-3.1-7.7-4.4-11.7C50.9,133.2,51.3,134,51.3,133.9L51.3,133.9z M50.5,128.7c0.9-0.2,1.9-0.3,2.9-0.3 c-0.1-0.6-0.3-1.1-0.4-1.7c-0.7,0.4-1.5,1-2.4,1.7L50.5,128.7L50.5,128.7z M60.3,128.9c1.8,0.3,3.8,0.7,6.1,1.3 c-0.9-4.3-1-8.7-0.2-13c0.8-4.4,3.2-8.4,6.8-11.2c-0.3-0.7-0.5-1.7-0.8-2.7C64.6,109.7,60.2,119.1,60.3,128.9L60.3,128.9z M70.6,131.3c0.8,0.2,1.6,0.5,2.3,0.7c-0.3-4.8,0.7-9.6,3-13.8c0.6-1.2,1.4-2.4,2.3-3.5c-0.2-2.6-0.1-5.1,0.2-7.7 c-0.4,0.2-0.8,0.4-1.1,0.6c-3.8,2.2-6.5,5.9-7.2,10.3C69.3,121.6,69.4,126,70.6,131.3L70.6,131.3z M73.5,138.3l-1-0.4l0.2,0.5 L73.5,138.3L73.5,138.3z M68,136.6c-0.6-0.2-1.2-0.3-1.8-0.5c-2.1-0.6-4-1-5.5-1.4c0.1,0.9,0.2,1.8,0.4,2.7c0.7,1.8,1.3,3.4,2,4.9 c1.9-1.2,3.9-2.1,5.9-2.8C68.7,138.6,68.3,137.6,68,136.6L68,136.6z M100,214.9l-0.1,0.9l0.6-0.7C100.5,215,100,214.9,100,214.9z M251,93.8c-0.3,0.3-0.5,0.7-0.8,1.1c-0.8,1.1-1.5,2.3-2.3,3.5c0.1,0.4,0.1,0.8,0.2,1.3C249.2,97.8,250.1,95.9,251,93.8L251,93.8z M246,101.7c-1,1.7-1.9,3.4-2.7,5.1c1-1.3,2-2.6,2.8-3.9L246,101.7z M239.9,110.3c1.6-3.4,3.6-7.4,5.8-11.1c-0.2-1.8-0.4-3-0.5-3.2 l0,0l0,0l0,0c-1.2-6.6-5.4-5.5-10.4-1.2C237.6,99.5,239.3,104.8,239.9,110.3L239.9,110.3z M68.6,176.1c2.1-3.2,4.9-6,8.2-8.1 c-3.9-3.2-7.5-6.9-10.6-10.9c-3,3.4-4.5,7.9-4.2,12.4C63.9,172,66.1,174.2,68.6,176.1L68.6,176.1z M77.9,169.6 c-3.1,2-5.7,4.5-7.7,7.5c1.7,1.1,3.4,2.1,5.3,2.9l0.8-0.6l0,0c0.1-0.6,0.2-1.7,0.4-3.6C76.9,173.7,77.3,171.6,77.9,169.6L77.9,169.6 z M114.6,56.9c0,0.6,0,1.1,0,1.7c-0.1,2.4-0.4,5.3-0.7,8.3c2.1-2.3,4.4-4.5,6.8-6.5c-1.4-1.1-3-2.1-4.7-2.9 C115.6,57.3,115.1,57.1,114.6,56.9L114.6,56.9z M112.9,74.1c-0.3,2.1-0.6,4.1-0.9,5.9c1-1.2,2.1-2.4,3.3-3.5 C115.3,76.5,112.9,74.1,112.9,74.1z M108.5,49.4c-0.2-2.3-0.5-4.3-0.8-5.8c-3,1.9-5.8,4-8.5,6.3C102.3,49.2,105.4,49.1,108.5,49.4z M216.5,75.9c4.8-2.7,9.1-6.2,12.9-10.1c-1.5-0.5-3.1-0.6-4.7-0.4c-2.1,0.3-4.2,0.7-6.3,1.4c-1.8,2.3-3.4,4.7-4.8,7.2 C214.6,74.6,215.5,75.2,216.5,75.9L216.5,75.9z M212.4,73.2c1-1.9,2.2-3.7,3.4-5.4c-2.4,1-4.7,2.1-7,3.4 C210,71.8,211.2,72.5,212.4,73.2L212.4,73.2z M234.2,117.4c-3,2-6.4,3.5-9.8,4.4c-1.3,3.8-3.2,7.3-5.7,10.4 C226.7,129.9,232.9,125.4,234.2,117.4z M206.7,123.7c-1.1,0-2.2-0.1-3.3-0.2c0.8,0.9,1.6,1.8,2.3,2.8 C206,125.5,206.4,124.6,206.7,123.7z M201.6,121.7c1.9,0.3,3.7,0.4,5.6,0.5c0.7-2.3,1.1-4.7,1.2-7.2c0.5-11.2-5-19-10.7-24 c0.7,3.2,1,6.4,1,9.7c0.5,3.7,0.7,7.4,0.6,11.1c-0.1,2.9-0.2,5.5-0.3,8C199.9,120.4,200.7,121.1,201.6,121.7L201.6,121.7z M213.3,122.1c1.6-0.1,3.3-0.3,5.1-0.6c1.3-3.2,2-6.5,2.1-9.9C217.2,116,214.6,120,213.3,122.1z M224.9,120.1 c3.4-1.1,6.6-2.6,9.5-4.7c0-0.6,0-1.2,0-1.8c-0.1-5.2-1.5-10.2-3.9-14.8c-1.6,1.8-3.3,3.7-4.9,5.7c0.2,1,0.3,2.1,0.4,3.1 C226.4,111.8,226,116,224.9,120.1L224.9,120.1z M197.3,109.1c-0.9,2.8-2.3,5.5-4.3,7.7c1.4,0.5,2.7,1.1,4,1.8 c0.1-2.2,0.2-4.5,0.3-6.9C197.3,110.8,197.3,110,197.3,109.1L197.3,109.1z M189.1,108.9l0.6,1.2c0.2,0.3,0.3,0.7,0.4,1 c0.7-1.6,1.9-5.2,0.6-11.2c-1.8-8.3-5.9-1.5-5.9-1.5C187,100.9,188.4,105.8,189.1,108.9L189.1,108.9z M192.9,120.9 c0.6,4.4,0.5,8.8-0.4,13.2c1,0.1,2.1,0.1,3.1,0.2c0.4-2.8,0.8-6.6,1.1-11.3C195.6,122.2,194.3,121.5,192.9,120.9L192.9,120.9z M85.7,90.5c1.6-1.7,3.3-3.3,5.2-4.6c2.5-1.7,5.2-3.1,8.1-4.1c-1.2,0.2-2.4,0.4-3.6,0.6l-0.2,0.3L95,82.5c-3.3,0.7-6.5,1.8-9.5,3.4 c-1.2,0.6-2.2,1.2-3.2,1.8C83.5,88.6,84.7,89.7,85.7,90.5L85.7,90.5z M79.3,120.1c-2,3.6-2.9,7.6-2.7,11.7c1.1-3.8,2.6-7.5,4.4-11 c1.7-3.3,4.1-6.2,7-8.5C84.3,113.7,81.2,116.5,79.3,120.1L79.3,120.1z M61.2,149.3c-5.5,6.9-3.4,15.6-3.4,15.6l-0.3,0.1 c0.5,1.1,1,2.3,1.5,3.4c-0.1-5.2,1.8-10.1,5.4-13.9C63.1,152.9,62.1,151.1,61.2,149.3z M67.4,77.6c-0.9-1.2-1.8-2.4-2.8-3.6 c-4.2,5.1-7,11.1-8.4,17.6c4.6-0.2,9.1,0.5,13.4,2.1c0.4-0.9,0.8-1.7,1.3-2.5C68.8,86.9,67.6,82.3,67.4,77.6z M161.6,36.6l0.7-0.8 c-0.9-0.2-1.9-0.5-3-0.7C160,35.5,160.8,36,161.6,36.6L161.6,36.6z M198.6,124.3c-0.3,4.1-0.7,7.5-1,10.1c1.1,0,2.2,0,3.4,0 c1-1.3,1.8-2.6,2.7-4C202.4,128,200.7,125.9,198.6,124.3L198.6,124.3z M196.9,155.6l0.6-0.6l0,0c-0.3-2.3-0.9-4.7-1.7-6.9l-0.3,0.1 c-1,0.8-2,1.6-2.9,2.3c0,1.1,0,2.1,0.2,3.2c0.1,0.6,0.2,1.2,0.2,1.8C194.2,155.6,195.5,155.7,196.9,155.6L196.9,155.6z M211,159.6 c-2.7,0-5.3,0-7.7,0c-0.2,2.1-0.6,4.3-1.3,6.3c1.4,0.5,3,1,4.6,1.4C208.5,165,210,162.4,211,159.6L211,159.6z M202,148.8 c0.9-1.5,1.6-3,2.2-4.6c-1.1,0.6-2.3,1.2-3.3,1.7C201.4,146.8,201.7,147.8,202,148.8L202,148.8z M199.2,171.6 c-0.5,0.8-0.8,1.2-0.8,1.2l-2.2-1.9l-0.8-0.2l1.9,3.5c1.4-0.6,2.7-1.3,4-2.2L199.2,171.6L199.2,171.6z M80.3,184.2l0.4,0.4 c2.1,1.7,5.4,1.1,5.4,1.1s-1.7-1.6-2.9-2.9c-1.1-1.5-2.1-3.1-2.9-4.9C80.3,177.9,78.9,182.2,80.3,184.2L80.3,184.2z M109.3,204.5 c-1.4-0.3-3-0.6-4.5-1c-1.1,3-2.8,5.7-5,8c0.9,0.4,1.8,0.7,2.8,1C104.8,210,107,207.4,109.3,204.5L109.3,204.5z M50.5,197.9 c-0.2-0.5,0-1.1,0.5-1.3s1.1,0,1.3,0.5c0.1,0.2,0.1,0.4,0.1,0.6c0,0.1,2.1,24,15.3,14.8c-6.1-3.7-11-9.1-14.2-15.5 c-0.3-0.8,0-1.6,0.8-2c0.8-0.3,1.7,0,2,0.8c3,6.2,7.9,11.4,13.9,14.7c1.8-1.7,3.4-3.5,4.9-5.4l0.5-0.6c-2.7-1.7-5.2-3.6-7.5-5.8 c-5.1-4.9-9.2-10.9-12.1-17.4c-5.3,3.5-10.9,10-9.4,21.6l0,0c0.5,5,2.7,9.6,6.1,13.3c2.4,2.5,5.6,4.2,9,5c3.2,0.7,6.4,0.5,9.5-0.7 c2.3-0.8,4.2-2.3,5.8-4.1c-2.5-0.6-5-1.5-7.3-2.6C53.1,227.4,50.5,198,50.5,197.9L50.5,197.9z M77.9,201.5l1-1.3 c-6.8-6.1-12.7-13-17.5-20.8l-1-0.7c-0.4,0.2-0.8,0.4-1.3,0.6c2.7,6.2,6.6,11.8,11.4,16.5C72.9,198,75.3,199.9,77.9,201.5 L77.9,201.5z M80.8,197.8l3.1-4.1l-5.3,2.1C79.4,196.5,80.1,197.2,80.8,197.8z M90.7,184.8c2.1-2.8,4-5.4,5.8-7.7 c-2.1-1.3-5.7-2.8-8.4-0.2C85,179.8,88.6,183.3,90.7,184.8z M80.3,201.6l-0.8,0.9c1.6,0.9,3.2,1.8,4.8,2.5 C83.1,204,81.8,202.8,80.3,201.6L80.3,201.6z M110.5,206.2c-2,2.4-3.9,4.8-5.8,7c1.9,0.6,3.9,1.1,5.7,1.5 C110.4,211.8,110.5,208.9,110.5,206.2L110.5,206.2z M73.5,87.6c0.8-0.8,1.6-1.6,2.5-2.3c-0.5-3.5-1.2-12.7,3.2-21.1 c-0.8,0.2-1.7,0.5-2.5,0.8C68.6,72.1,71.3,82.4,73.5,87.6L73.5,87.6z M94.1,76.7c1.2-0.3,2.4-0.5,3.6-0.6c-0.9-3.6-0.6-7.4,0.8-10.8 c-1.8-0.6-3.6-1-5.4-1.3C91.8,70.2,92.8,74.3,94.1,76.7L94.1,76.7z M68.2,96.4c-4-1.4-8.3-2-12.6-1.7c-0.4,2.5-0.6,5-0.7,7.5 c-0.1,2.2-0.1,4.3,0.1,6.5C58.4,103.7,62.9,99.5,68.2,96.4z M34.6,113.4c0.2,1,0.5,2,0.9,2.9c0.4,1,1,1.9,1.7,2.8 c1.1,1.4,2.6,2.4,4.3,2.9l0,0c0.4,0.1,0.9,0.1,1.3-0.1c0.3-0.1,0.5-0.3,0.7-0.6c0.3-0.8,0.3-1.7,0-2.5c-0.5-2.1-3.8-4-7.2-5 C35.7,113.6,35.1,113.5,34.6,113.4L34.6,113.4z M32.7,117.6c-0.6-1.5-1.1-3-1.3-4.6c-0.9,0-1.8,0.1-2.7,0.5l0,0 c-0.4,0.2-0.7,0.6-0.7,1.1c-0.1,2.7,2.8,3.6,5.1,3.8C33,118.2,32.9,117.9,32.7,117.6L32.7,117.6z M128.2,59.8 c0.6,0.7,1.1,1.4,1.6,2.2c5.2-2.6,10.9-4.1,16.7-4.7c-0.7-0.9-1.5-1.8-2.3-2.8l-1.5,0.2C137.6,55.4,132.7,57.1,128.2,59.8z M128,70.8c-0.3-0.8-0.7-1.7-1.1-2.5c-1.3,1-2.5,2-3.5,3.2C124.6,71.3,126.2,71,128,70.8z M157,56.7c2.3-0.1,4.4-0.1,6.4-0.1 c-2.4-0.8-4.9-1.4-7.5-1.8C156.3,55.4,156.6,56.1,157,56.7z M242.9,177.8c-0.7,1.3-1.8,2.7-3.5,2.7s-3-1.6-3.9-3.1 C238,177.7,240.5,177.8,242.9,177.8z M51.9,121.8c-0.2,0.7-0.4,1.5-0.6,2.3l0.9-0.6C52.1,122.9,52,122.4,51.9,121.8z M40.4,155.2 c-0.6-2.2-1-4.5-1.2-6.8c-0.2-2.1-0.2-4.3-0.1-6.4c-1,2.7-1.2,5.6-0.6,8.5C39,152.1,39.6,153.7,40.4,155.2z M187,147.4 c0.8-0.6,1.7-1.2,2.6-1.9c0.2-0.3,0.3-0.7,0.3-1.1c0.2-1.7-0.9-3.3-2.5-3.9c0,0,0.3,4.1-0.7,5.9C186.4,147.1,186.6,147.3,187,147.4 L187,147.4z M92.8,161.4c2.1,0.1,4.2-0.1,6.3-0.6c0,0-0.7,2.2-2.5,2.4S92.8,161.4,92.8,161.4L92.8,161.4z M166.8,179.2 c0.4,0.1,4.3,1.6,8-2.4c2.2-2.5,3-6,2.2-9.2c-0.9,2.8-2.6,5.4-4.8,7.4C170.5,176.5,168.7,177.9,166.8,179.2z M165.8,172 c1.6,0.5,3.4,0.1,4.7-1c2.4-1.9,1-5,1-5L165.8,172L165.8,172z M177.2,181.3c2.2-0.8,3.9-2.6,4.7-4.8c0.7-1.8,1-3.8,1-5.7 c0,0,3,4.6,1.1,7.4S177.2,181.3,177.2,181.3L177.2,181.3z M180.5,114.5c0,0,0.8,2.5,2.3,2.8c0.8,0.2,1.6,0.2,2.4,0 c0,0,0.6,3.4-1.9,2.7S180.5,114.5,180.5,114.5L180.5,114.5z M178.9,106c2.8,2.6,5.3,7.7,5.3,7.7s-3.2-0.7-4.7-2.3 S178.9,106,178.9,106z M181.2,95.3l-7.2-8.9c0,0,4.8-0.8,6.7,1.5S181.1,95.3,181.2,95.3L181.2,95.3z M169.1,94.3 c0,0,0.5-4.5-3.8-9.1c-1.9-2.4-5.4-2.8-7.8-0.9c-0.2,0.2-0.4,0.4-0.6,0.6c0,0,5.7,2.1,7.7,4C166.1,90.6,167.6,92.4,169.1,94.3 L169.1,94.3z M88.3,129.3c0.3-1.3,2.5-3.6,2.5-3.6s-2.5-0.3-2.9,0.9C87.7,127.5,87.8,128.5,88.3,129.3z M79.4,154.9 c1.4,0.8,2.9,1.3,4.5,1.6c1.3,0.2,2.5,0.3,3.8,0.2c0,0-5.1,3-7.2,1.3S79.4,154.9,79.4,154.9z M91.5,149.8c-0.7,1.8-1,3.8-0.9,5.7 c0,1.8,0.9,3.5,2.5,4.4C91.9,156.7,91.4,153.2,91.5,149.8L91.5,149.8z M117.1,176.5c2.4,1.7,5,3.1,7.8,4c0.8,0.2,1.5,0.4,2.2,0.5 h2.1c0.8,0.1,1.7,0.2,2.5,0.2c-1.2,0.7-2.4,1.3-3.8,1.6h-0.2h-0.1h-2.3c-0.9,0-1.8-0.1-2.7-0.4c-4.8-1.4-5.6-6.6-5.6-6.6V176.5z M147.3,191.6c0.7,1.1,1.7,2,2.8,2.7c1.6,0.8-0.5,1.4-2.3,0.3c-0.9-0.6-1.2-1.8-0.6-2.8C147.2,191.7,147.3,191.7,147.3,191.6 L147.3,191.6z M150.3,187.8c0,0,6.4,1.7,10.9-0.4s6.2-4.3,6.2-4.3s-3.8,11-8.2,10.9S150.3,187.8,150.3,187.8L150.3,187.8z"></path> <path class="st1" d="M275.4,210.3H271c-1.2,0-2.2-1-2.2-2.2v-4.5c0-1.2-1-2.2-2.2-2.2l0,0c-1.2,0-2.2,1-2.2,2.2l0,0v4.5 c0,1.2-1,2.2-2.2,2.2l0,0h-4.4c-1.2,0-2.2,1-2.2,2.2c0,0,0,0,0,0.1v0.1c0,1.2,1,2.2,2.2,2.2l0,0h4.4c1.2,0,2.2,1,2.2,2.2l0,0v4.5 c0,1.2,1,2.2,2.2,2.2s2.2-1,2.2-2.2v-4.5c0-1.2,1-2.2,2.2-2.2l0,0h4.4c1.2,0,2.2-1,2.2-2.2c0,0,0,0,0-0.1l0,0 C277.6,211.3,276.6,210.3,275.4,210.3L275.4,210.3"></path> <path class="st2" d="M40.1,32.4h-3.6c-1,0-1.8-0.8-1.8-1.8l0,0v-3.7c0-1-0.8-1.8-1.8-1.8c0,0,0,0-0.1,0l0,0c-1,0-1.8,0.8-1.8,1.8 l0,0v3.7c0,1-0.8,1.8-1.8,1.8h-3.6c-1,0-1.8,0.8-1.8,1.8c0,0,0,0,0,0.1l0,0c0,1,0.8,1.8,1.8,1.8l0,0h3.6c1,0,1.8,0.8,1.8,1.8l0,0 v3.7c0,1,0.8,1.8,1.8,1.8s1.8-0.8,1.8-1.8v-3.7c0-1,0.8-1.8,1.8-1.8H40c1,0,1.8-0.8,1.8-1.8l0,0C41.9,33.3,41.1,32.5,40.1,32.4"></path> <path class="st3" d="M192.1,243.2L192.1,243.2c-3.3,0-6,2.7-6,6c0,3.3,2.7,6,6,6s6-2.7,6-6C198.1,245.9,195.4,243.2,192.1,243.2 M192.1,257.8c-4.7,0-8.6-3.8-8.6-8.6c0-4.8,3.8-8.6,8.6-8.6s8.6,3.8,8.6,8.6l0,0C200.8,254,196.8,257.8,192.1,257.8z"></path> <polygon class="st4" points="236.9,248.2 228.6,274.1 224.6,274.1 232.9,248.2 "></polygon> </svg> 